# xmcd CD database file
#
# Track frame offsets:
#	183
#	41128
#	87720
#	135023
#	174593
#
# Disc length: 3160 seconds
#
# Revision: 0
# Processed by: cddbd v1.5.2PL0 Copyright (c) Steve Scherf et al.
# Submitted via: CDex 1.70beta2
#
DISCID=3b0c5605
DTITLE=George Benson - The George Benson Collection
DYEAR=1988
DGENRE=Jazz
TTITLE0=The Masquerade Is Over
TTITLE1=Oleo
TTITLE2=There Will Never Be Another You
TTITLE3=All The Things You Are
TTITLE4=Love For Sale
EXTD=YEAR: 1988
EXTT0=
EXTT1=
EXTT2=
EXTT3=
EXTT4=
PLAYORDER=
